<svg xmlns="http://www.w3.org/2000/svg" version="1.1" xmlns:xlink="http://www.w3.org/1999/xlink" xmlns:svgjs="http://svgjs.dev/svgjs" width="100%" height="100%" viewBox="0 0 1000 600"><rect width="1000" height="600" x="0" y="0" fill="#ffffff"/><g><rect width="333.3333333333333" height="333.3333333333333" rx="13.333333333333334" ry="13.333333333333334" y="282.66839114335176" fill="#5e81f2" transform="matrix(0.4799455936674678,0,0,0.4799455936674678,0,84.34360610610517)" x="260.4461364746094"/><path d="M365.5886587188496 506.0337663824727Q346.37524152004215 487.732471592797 346.37524152004215 449.3939071057432Q346.37524152004215 411.0847659222098 365.5886587188496 392.695201221973Q384.77265261413675 374.3350598252565 423.1406404047109 374.3350598252565L423.1406404047109 374.3350598252565L446.208510364688 374.3350598252565Q469.6883065739504 374.3350598252565 487.7542149354631 386.54573078621377Q505.7906999934554 398.756401747171 505.7906999934554 419.97060358536424L505.7906999934554 419.97060358536424Q505.7906999934554 426.0612274140827 502.1716336604488 428.7093247309168Q498.55256732744215 431.3574220477509 495.1394641190782 431.3574220477509L495.1394641190782 431.3574220477509L482.8405232475598 431.3574220477509Q473.30737290695697 431.3574220477509 468.0406015768092 419.97060358536424L468.0406015768092 419.97060358536424Q460.3905426615106 403.6112468280336 442.5894440316814 403.6112468280336L442.5894440316814 403.6112468280336L424.17045602792416 403.6112468280336Q401.51451231723235 403.6112468280336 393.4525271526485 413.350360293279Q385.3905419880647 423.06005045500405 385.3905419880647 449.33506049870243Q385.3905419880647 475.6100705424009 393.4525271526485 485.37860731116666Q401.51451231723235 495.1765673834529 424.17045602792416 495.1765673834529L424.17045602792416 495.1765673834529L444.7667684921894 495.1765673834529Q462.5678671220187 495.1765673834529 470.10023282323573 478.8172106261222L470.10023282323573 478.8172106261222Q475.3670041533835 467.34212225317435 484.98842440454746 467.34212225317435L484.98842440454746 467.34212225317435L497.3167885795863 467.34212225317435Q502.1716336604488 467.34212225317435 505.0256941019255 470.961188586181Q507.85033123988194 474.5802549191876 507.85033123988194 478.8172106261222L507.85033123988194 478.8172106261222Q507.85033123988194 500.0314124643154 489.87269278893035 512.1832368182319Q471.86563103445843 524.3350611721485 448.385834825196 524.3350611721485L448.385834825196 524.3350611721485L423.1406404047109 524.3350611721485Q384.77265261413675 524.3350611721485 365.5886587188496 506.0337663824727Z " fill="#ffffff" transform="matrix(0.4799455936674678,0,0,0.4799455936674678,0,84.34360610610517)"/><path d="M692.5891687591418 480.4181711647488Q677.1127904082025 465.6765060280194 677.1127904082025 434.79485060493516Q677.1127904082025 403.93689560811583 692.5891687591418 389.1241291925919Q708.0418466838164 374.3350632033329 738.9472025331654 374.3350632033329L738.9472025331654 374.3350632033329L757.5283367247986 374.3350632033329Q776.4412768841395 374.3350632033329 790.9933386107501 384.17074010324075Q805.521699911096 394.0064170031486 805.521699911096 411.09442434009696L805.521699911096 411.09442434009696Q805.521699911096 416.0004125769185 802.6065474805209 418.1334509407539Q799.6913950499458 420.26648930458936 796.9421456032246 420.26648930458936L796.9421456032246 420.26648930458936L787.0353674245222 420.26648930458936Q779.3564293147145 420.26648930458936 775.1140530133085 411.09442434009696L775.1140530133085 411.09442434009696Q768.9519421844507 397.9169873368469 754.6131842942234 397.9169873368469L754.6131842942234 397.9169873368469L739.7767174524347 397.9169873368469Q721.5273892285093 397.9169873368469 715.0334724319437 405.7618284305084Q708.539555635378 413.582969097905 708.539555635378 434.7474497524055Q708.539555635378 455.91193040690604 715.0334724319437 463.7804719268323Q721.5273892285093 471.6727138730235 739.7767174524347 471.6727138730235L739.7767174524347 471.6727138730235L756.3670158378216 471.6727138730235Q770.7057737280486 471.6727138730235 776.7730828518472 458.4952768697734L776.7730828518472 458.4952768697734Q781.0154591532532 449.2521106264865 788.7654985418553 449.2521106264865L788.7654985418553 449.2521106264865L798.6959771468225 449.2521106264865Q802.6065474805209 449.2521106264865 804.9054888282102 452.16726305706163Q807.1807297496347 455.08241548763675 807.1807297496347 458.4952768697734L807.1807297496347 458.4952768697734Q807.1807297496347 475.58328420672177 792.6997693018185 485.37156025409996Q778.1951084277375 495.15983630147815 759.2821682683966 495.15983630147815L759.2821682683966 495.15983630147815L738.9472025331654 495.15983630147815Q708.0418466838164 495.15983630147815 692.5891687591418 480.4181711647488ZM829.5302317173771 484.1628385145932Q816.518697697981 472.1704228245851 816.518697697981 448.8018025274546Q816.518697697981 425.43318223032406 829.5302317173771 413.4644669665808Q842.5180653105085 401.5194521291023 866.8821035107621 401.5194521291023Q891.2698421372808 401.5194521291023 904.2576757304121 413.4644669665808Q917.2455093235434 425.43318223032406 917.2455093235434 448.8018025274546Q917.2455093235434 472.1704228245851 904.2576757304121 484.1628385145932Q891.2698421372808 496.15525420460136 866.8821035107621 496.15525420460136Q842.5180653105085 496.15525420460136 829.5302317173771 484.1628385145932ZM850.5999106668183 427.16331334765727Q845.4332177410836 433.9179348331362 845.4332177410836 448.7544016749249Q845.4332177410836 463.5908685167136 850.5999106668183 470.41659128098706Q855.766603592553 477.24231404526046 866.8821035107621 477.24231404526046Q878.0213038552362 477.24231404526046 883.2116972072357 470.41659128098706Q888.4257909855002 463.5908685167136 888.4257909855002 448.7544016749249Q888.4257909855002 433.9179348331362 883.2116972072357 427.16331334765727Q878.0213038552362 420.4323922884432 866.8821035107621 420.4323922884432Q855.766603592553 420.4323922884432 850.5999106668183 427.16331334765727ZM932.5796851168938 489.4243331453873L932.5796851168938 489.4243331453873L932.5796851168938 408.3451748933757Q932.5796851168938 406.09363439821607 934.0491115453137 404.6242079697961Q935.4948375474688 403.178481967641 937.675276763834 403.178481967641L937.675276763834 403.178481967641L956.3275122342616 403.178481967641Q958.5079514506267 403.178481967641 959.9536774527819 404.6242079697961Q961.4231038812019 406.09363439821607 961.4231038812019 408.3451748933757L961.4231038812019 408.3451748933757L961.4231038812019 413.582969097905Q975.7381613451641 401.5194521291023 991.9492529103136 401.5194521291023Q1008.1603444754628 401.5194521291023 1018.3278273430785 411.378829455275Q1028.495310210694 421.26190720771257 1028.495310210694 441.5968729429438L1028.495310210694 441.5968729429438L1028.495310210694 489.4243331453873Q1028.495310210694 491.5810719354876 1027.0258837822741 493.02679793764275Q1025.580157780119 494.4962243660627 1023.3286172849594 494.4962243660627L1023.3286172849594 494.4962243660627L1004.7474830933262 494.4962243660627Q1002.5670438769611 494.4962243660627 1001.121317874806 493.02679793764275Q999.6518914463859 491.5810719354876 999.6518914463859 489.4243331453873L999.6518914463859 489.4243331453873L999.6518914463859 441.5968729429438Q999.6518914463859 421.6648144542148 983.7489054226795 421.6648144542148L983.7489054226795 421.6648144542148Q973.3444182924155 421.6648144542148 961.4231038812019 433.58612886542846L961.4231038812019 433.58612886542846L961.4231038812019 489.4243331453873Q961.4231038812019 491.5810719354876 959.9536774527819 493.02679793764275Q958.5079514506267 494.4962243660627 956.3275122342616 494.4962243660627L956.3275122342616 494.4962243660627L937.675276763834 494.4962243660627Q935.4948375474688 494.4962243660627 934.0491115453137 493.02679793764275Q932.5796851168938 491.5810719354876 932.5796851168938 489.4243331453873ZM1043.0710723635696 403.178481967641L1043.0710723635696 403.178481967641L1059.0688600923354 403.178481967641Q1062.647624458326 403.178481967641 1065.8234815778142 405.2167186264171Q1068.9756382710377 407.25495528519315 1070.3265625681336 410.501913683476L1070.3265625681336 410.501913683476L1093.0552713561133 462.4058472034717L1115.7365792915637 410.501913683476Q1117.0638031623946 407.25495528519315 1120.239660281883 405.2167186264171Q1123.3918169751064 403.178481967641 1126.970581341097 403.178481967641L1126.970581341097 403.178481967641L1143.0631707749221 403.178481967641Q1145.9783232054972 403.178481967641 1146.902639829826 405.3352207577413L1146.902639829826 405.3352207577413Q1147.3055470763281 406.1647356770106 1147.2581462237986 407.4682591215767Q1147.2344457975337 408.74808213987797 1146.4760321570589 410.501913683476L1146.4760321570589 410.501913683476L1110.4750846607697 487.1727926502277Q1108.9819578060847 490.41975104851053 1105.7824002603315 492.45798770728663Q1102.5591422883135 494.4962243660627 1099.1462809061768 494.4962243660627L1099.1462809061768 494.4962243660627L1086.8931605272555 494.4962243660627Q1083.4802991451188 494.4962243660627 1080.3281424518952 492.45798770728663Q1077.152285332407 490.41975104851053 1075.6591584777223 487.1727926502277L1075.6591584777223 487.1727926502277L1039.658210981433 410.501913683476Q1038.8286960621635 408.67698086108345 1038.8286960621635 407.420858269047L1038.8286960621635 407.420858269047Q1038.8286960621635 403.178481967641 1043.0710723635696 403.178481967641ZM1165.223069332546 483.9969355307394Q1152.4011387232683 471.83861685687737 1152.4011387232683 448.96770551130845Q1152.4011387232683 426.09679416573954 1165.317871037605 413.79627293428854Q1178.2109029256771 401.5194521291023 1201.1292151237758 401.5194521291023Q1224.0475273218744 401.5194521291023 1236.8694579311518 413.4644669665808Q1249.715088966694 425.43318223032406 1249.715088966694 447.7589837718017L1249.715088966694 447.7589837718017L1249.715088966694 452.49906902476937Q1249.715088966694 454.750609519929 1248.2456625382742 456.22003594834894Q1246.799936536119 457.6657619505041 1244.5483960409595 457.6657619505041L1244.5483960409595 457.6657619505041L1181.8133677179326 457.6657619505041Q1182.642882637202 467.92804652317903 1187.6673730053476 472.5733300710873Q1192.7155637997582 477.24231404526046 1203.8073632917026 477.24231404526046Q1214.8754623573818 477.24231404526046 1218.9756361011991 472.24152410337956Q1223.0521094187511 467.2407341614987 1229.0483172637553 467.1696328827042L1229.0483172637553 467.1696328827042L1241.4673406265306 467.1696328827042Q1243.7188811216902 467.1696328827042 1245.1646071238451 468.61535888485935Q1246.634033552265 470.0847853132793 1246.634033552265 472.3363258084389L1246.634033552265 472.3363258084389Q1246.634033552265 496.2500559096607 1201.058113844981 496.15525420460136L1201.058113844981 496.15525420460136Q1178.0449999418233 496.15525420460136 1165.223069332546 483.9969355307394ZM1181.6474647340788 440.0800456619941L1181.6474647340788 440.0800456619941L1220.3739612508243 440.0800456619941Q1219.544446331555 420.4323922884432 1201.081814271246 420.4323922884432Q1182.642882637202 420.4323922884432 1181.6474647340788 440.0800456619941ZM1330.8653484975005 424.3429626221415L1328.2109007558386 424.3429626221415L1315.365269720296 423.84525367057995Q1304.1312676707628 423.84525367057995 1293.8689830980877 436.1694753282958L1293.8689830980877 436.1694753282958L1293.8689830980877 489.4243331453873Q1293.8689830980877 491.65217321428213 1292.4232570959327 493.07419879017243Q1290.9538306675126 494.4962243660627 1288.7970918774124 494.4962243660627L1288.7970918774124 494.4962243660627L1270.1211559807198 494.4962243660627Q1267.8696154855602 494.4962243660627 1266.4475899096701 493.07419879017243Q1265.0492647600445 491.65217321428213 1265.0492647600445 489.4243331453873L1265.0492647600445 489.4243331453873L1265.0492647600445 408.3451748933757Q1265.0492647600445 406.09363439821607 1266.4949907621997 404.6242079697961Q1267.9644171906195 403.178481967641 1270.1211559807198 403.178481967641L1270.1211559807198 403.178481967641L1288.7970918774124 403.178481967641Q1291.048632372572 403.178481967641 1292.4469575221976 404.6242079697961Q1293.8689830980877 406.09363439821607 1293.8689830980877 408.3451748933757L1293.8689830980877 408.3451748933757L1293.8689830980877 413.582969097905Q1302.3774361271646 407.420858269047 1310.245977647091 404.4583049859423Q1318.1145191670173 401.5194521291023 1330.8653484975005 401.5194521291023L1330.8653484975005 401.5194521291023Q1333.11688899266 401.5194521291023 1334.562614994815 402.96517813125746Q1336.0320414232351 404.4346045596774 1336.0320414232351 406.5913433497777L1336.0320414232351 406.5913433497777L1336.0320414232351 419.2473709752013Q1336.0320414232351 421.49891147036095 1334.562614994815 422.92093704625125Q1333.11688899266 424.3429626221415 1330.8653484975005 424.3429626221415L1330.8653484975005 424.3429626221415ZM1391.4436380304267 476.4127991259911L1391.4436380304267 476.4127991259911L1402.8672434900789 475.4173812228679L1405.948298904508 475.4173812228679Q1408.1998393996676 475.4173812228679 1409.6455654018225 476.8394067987582Q1411.1149918302424 478.23773194838367 1411.1149918302424 480.4892724435433L1411.1149918302424 480.4892724435433L1411.1149918302424 489.4243331453873Q1411.1149918302424 491.2492659677799 1409.6455654018225 492.694991969935Q1408.1998393996676 494.16441839835494 1405.948298904508 494.4962243660627L1405.948298904508 494.4962243660627Q1397.4398458754308 496.15525420460136 1383.7646999206193 496.15525420460136L1383.7646999206193 496.15525420460136Q1347.9533558344485 496.15525420460136 1347.9533558344485 458.6611798536273L1347.9533558344485 458.6611798536273L1347.9533558344485 380.1890684907479Q1347.9533558344485 377.93752799558825 1349.399081836604 376.46810156716833Q1350.8685082650238 375.0223755650132 1353.0252470551238 375.0223755650132L1353.0252470551238 375.0223755650132L1371.7011829518167 375.0223755650132Q1373.857921741917 375.0223755650132 1375.3273481703368 376.46810156716833Q1376.773074172492 377.93752799558825 1376.773074172492 380.1890684907479L1376.773074172492 380.1890684907479L1376.773074172492 408.013368925668L1400.0231923382983 408.013368925668Q1402.1799311283985 408.013368925668 1403.6493575568186 409.4353945015583Q1405.0950835589736 410.83371965118374 1405.0950835589736 413.0852601463434L1405.0950835589736 413.0852601463434L1405.0950835589736 423.0157387513106Q1405.0950835589736 425.2672792464702 1403.6493575568186 426.66560439609566Q1402.1799311283985 428.08762997198596 1400.0231923382983 428.08762997198596L1400.0231923382983 428.08762997198596L1376.773074172492 428.08762997198596L1376.773074172492 458.6611798536273Q1376.773074172492 467.1696328827042 1380.7784462112497 471.7912160043477Q1384.7838182500072 476.4127991259911 1391.4436380304267 476.4127991259911ZM1424.7664373587893 489.4243331453873L1424.7664373587893 489.4243331453873L1424.7664373587893 380.1890684907479Q1424.7664373587893 377.93752799558825 1426.2358637872094 376.46810156716833Q1427.6815897893644 375.0223755650132 1429.8620290057295 375.0223755650132L1429.8620290057295 375.0223755650132L1448.5142644761575 375.0223755650132Q1450.6947036925224 375.0223755650132 1452.1404296946773 376.46810156716833Q1453.6098561230974 377.93752799558825 1453.6098561230974 380.1890684907479L1453.6098561230974 380.1890684907479L1453.6098561230974 489.4243331453873Q1453.6098561230974 491.5810719354876 1452.1404296946773 493.02679793764275Q1450.6947036925224 494.4962243660627 1448.5142644761575 494.4962243660627L1448.5142644761575 494.4962243660627L1429.8620290057295 494.4962243660627Q1427.6815897893644 494.4962243660627 1426.2358637872094 493.02679793764275Q1424.7664373587893 491.5810719354876 1424.7664373587893 489.4243331453873ZM1488.7575882738527 503.17058037899346L1491.8386436882815 503.17058037899346L1502.764540196372 504.568905528619Q1514.496251197467 504.568905528619 1519.16523517164 487.33869563408155L1519.16523517164 487.33869563408155Q1505.0160806915317 487.33869563408155 1495.5122097593314 478.78284175247495Q1486.0083388271312 470.25068829713314 1479.182616062858 448.42259570721717L1479.182616062858 448.42259570721717L1466.7635927000827 408.17927190952184Q1466.5028880111695 407.51565997410637 1466.5028880111695 406.63874420230735Q1466.5028880111695 405.7618284305084 1467.5457067668224 404.50570583847195Q1468.588525522475 403.24958324643546 1470.6741630337813 403.178481967641L1470.6741630337813 403.178481967641L1488.093976338437 403.178481967641Q1490.5114198174504 403.178481967641 1492.7155594600806 404.79011095365Q1494.9196991027104 406.4254403659238 1495.583311038126 408.8428838449373L1495.583311038126 408.8428838449373L1506.5092075462164 444.18021940581116Q1510.5856808637686 457.16805299894247 1514.8043567389097 462.16884294082337Q1518.9993321877862 467.1696328827042 1524.758535770142 467.1696328827042L1524.758535770142 467.1696328827042L1541.3488341555287 408.8428838449373Q1542.012446090944 406.4254403659238 1543.9558810446608 404.79011095365Q1545.9230164246426 403.178481967641 1548.340459903656 403.178481967641L1548.340459903656 403.178481967641L1565.926176192166 403.178481967641Q1568.0118137034717 403.178481967641 1569.0072316065946 404.50570583847195Q1570.002649509718 405.8329297093029 1570.002649509718 406.70984548110187Q1570.002649509718 407.5867612529009 1569.836746525864 408.17927190952184L1569.836746525864 408.17927190952184L1548.0086539359481 485.98777133698576Q1542.1783490747978 506.6545430399247 1533.5513939143968 515.4948020367094Q1524.924438753996 524.3350610334941 1511.3440945042435 524.3350610334941Q1497.763750254491 524.3350610334941 1492.1467492297245 523.315942704106Q1486.506047778693 522.3205248009828 1485.0840222028025 520.8747987988277Q1483.6856970531771 519.4053723704077 1483.6856970531771 517.4856378429558L1483.6856970531771 517.4856378429558L1483.6856970531771 508.3372733047282Q1483.6856970531771 506.0857328095686 1485.0840222028025 504.61630638114866Q1486.506047778693 503.17058037899346 1488.7575882738527 503.17058037899346L1488.7575882738527 503.17058037899346ZM1587.2565598305202 467.50143885041194L1597.4951439769304 467.50143885041194Q1608.7528464527286 467.50143885041194 1608.7528464527286 478.8302426050046L1608.7528464527286 478.8302426050046L1608.7528464527286 484.09173723579875Q1608.7528464527286 489.32953144032797 1605.8613944484184 492.33948557596244Q1602.993642870373 495.325739285332 1597.4951439769304 495.325739285332L1597.4951439769304 495.325739285332L1587.2565598305202 495.325739285332Q1581.7580609370777 495.325739285332 1578.8666089327676 492.33948557596244Q1575.9988573547223 489.32953144032797 1575.9988573547223 484.09173723579875L1575.9988573547223 484.09173723579875L1575.9988573547223 478.8302426050046Q1575.9988573547223 473.3317437115621 1578.9140097852971 470.41659128098706Q1581.8291622158724 467.50143885041194 1587.2565598305202 467.50143885041194L1587.2565598305202 467.50143885041194ZM1625.817153363412 456.0778333907599L1625.817153363412 456.0778333907599L1625.817153363412 408.3451748933757Q1625.817153363412 406.09363439821607 1627.286579791832 404.6242079697961Q1628.7323057939873 403.178481967641 1630.9127450103522 403.178481967641L1630.9127450103522 403.178481967641L1649.56498048078 403.178481967641Q1651.745419697145 403.178481967641 1653.1911456993003 404.6242079697961Q1654.6605721277203 406.09363439821607 1654.6605721277203 408.3451748933757L1654.6605721277203 408.3451748933757L1654.6605721277203 456.0778333907599Q1654.6605721277203 476.0809931582834 1670.4924568726321 476.0809931582834L1670.4924568726321 476.0809931582834Q1680.8969440028961 476.0809931582834 1692.8893596929045 464.0885774682753L1692.8893596929045 464.0885774682753L1692.8893596929045 408.3451748933757Q1692.8893596929045 406.09363439821607 1694.3587861213243 404.6242079697961Q1695.8045121234793 403.178481967641 1697.9849513398444 403.178481967641L1697.9849513398444 403.178481967641L1716.566085531478 403.178481967641Q1718.8176260266375 403.178481967641 1720.2633520287925 404.6242079697961Q1721.7327784572124 406.09363439821607 1721.7327784572124 408.3451748933757L1721.7327784572124 408.3451748933757L1721.7327784572124 489.4243331453873Q1721.7327784572124 491.5810719354876 1720.2633520287925 493.02679793764275Q1718.8176260266375 494.4962243660627 1716.566085531478 494.4962243660627L1716.566085531478 494.4962243660627L1697.9849513398444 494.4962243660627Q1695.8045121234793 494.4962243660627 1694.3587861213243 493.02679793764275Q1692.8893596929045 491.5810719354876 1692.8893596929045 489.4243331453873L1692.8893596929045 489.4243331453873L1692.8893596929045 484.09173723579875Q1678.5743022289419 496.15525420460136 1662.3632106637926 496.15525420460136Q1646.1521190986432 496.15525420460136 1635.9846362310277 486.29587687842866Q1625.817153363412 476.4127991259911 1625.817153363412 456.0778333907599ZM1736.2374393312932 418.2519530720781L1736.2374393312932 418.2519530720781L1736.2374393312932 408.3451748933757Q1736.2374393312932 406.09363439821607 1737.6831653334486 404.6242079697961Q1739.1525917618685 403.178481967641 1741.404132257028 403.178481967641L1741.404132257028 403.178481967641L1817.2928971570402 403.178481967641Q1819.5444376521998 403.178481967641 1820.9664632280899 404.6242079697961Q1822.3884888039804 406.09363439821607 1822.3884888039804 408.3451748933757L1822.3884888039804 408.3451748933757L1822.3884888039804 416.33221854462624Q1822.3884888039804 422.49432937348416 1816.4633822377712 428.4194359396937L1816.4633822377712 428.4194359396937L1771.0533655143406 474.32716161468534L1817.9565090924555 474.32716161468534Q1820.2080495876155 474.32716161468534 1821.6774760160354 475.7965880431053Q1823.1232020181903 477.24231404526046 1823.1232020181903 479.4938545404201L1823.1232020181903 479.4938545404201L1823.1232020181903 489.4243331453873Q1823.1232020181903 491.5810719354876 1821.6774760160354 493.02679793764275Q1820.2080495876155 494.4962243660627 1817.9565090924555 494.4962243660627L1817.9565090924555 494.4962243660627L1741.404132257028 494.4962243660627Q1739.1525917618685 494.4962243660627 1737.6831653334486 493.02679793764275Q1736.2374393312932 491.5810719354876 1736.2374393312932 489.4243331453873L1736.2374393312932 489.4243331453873L1736.2374393312932 481.3424877890775Q1736.2374393312932 475.25147823901403 1742.2336471762976 469.25527039401L1742.2336471762976 469.25527039401L1786.0557353399834 423.34754471901834L1741.404132257028 423.34754471901834Q1739.1525917618685 423.34754471901834 1737.6831653334486 421.87811829059837Q1736.2374393312932 420.4323922884432 1736.2374393312932 418.2519530720781Z " fill="#4070f4" transform="matrix(0.4799455936674678,0,0,0.4799455936674678,0,84.34360610610517)"/></g></svg>